<svg width="9" height="9" viewBox="0 0 9 9" fill="none" xmlns="http://www.w3.org/2000/svg">
<path fill-rule="evenodd" clip-rule="evenodd" d="M8.43745 0.568747C8.1937 0.324997 7.79995 0.324997 7.5562 0.568747L4.49995 3.61875L1.4437 0.562497C1.19995 0.318747 0.806201 0.318747 0.562451 0.562497C0.318701 0.806247 0.318701 1.2 0.562451 1.44375L3.6187 4.5L0.562451 7.55625C0.318701 7.8 0.318701 8.19375 0.562451 8.4375C0.806201 8.68125 1.19995 8.68125 1.4437 8.4375L4.49995 5.38125L7.5562 8.4375C7.79995 8.68125 8.1937 8.68125 8.43745 8.4375C8.6812 8.19375 8.6812 7.8 8.43745 7.55625L5.3812 4.5L8.43745 1.44375C8.67495 1.20625 8.67495 0.806247 8.43745 0.568747Z" fill="white"/>
</svg>
