<?xml version="1.0" encoding="utf-8"?>
<!-- Generator: Adobe Illustrator 22.1.0, SVG Export Plug-In . SVG Version: 6.00 Build 0)  -->
<svg version="1.1" id="Layer_1" xmlns="http://www.w3.org/2000/svg" xmlns:xlink="http://www.w3.org/1999/xlink" x="0px" y="0px"
	 width="66px" height="24px" viewBox="0 0 2843.6 1026.8" style="enable-background:new 0 0 2843.6 1026.8;" xml:space="preserve">
<style type="text/css">
	.st0{fill:#84BCE7;}
	.st1{fill:#008CCE;}
	.st2{fill:#9666A1;}
	.st3{fill:#5F147D;}
</style>
<rect x="2167.3" y="604.9" transform="matrix(0.6773 -0.7357 0.7357 0.6773 237.3609 1886.7124)" class="st0" width="203.9" height="135.9"/>
<rect x="2191.4" y="330.9" transform="matrix(0.6773 -0.7357 0.7357 0.6773 410.7376 1801.9508)" class="st0" width="135.9" height="203.8"/>
<rect x="2316.4" y="479.9" transform="matrix(0.6773 -0.7357 0.7357 0.6773 366.4316 1931.0192)" class="st1" width="135.9" height="135.9"/>
<rect x="2455.4" y="592.9" transform="matrix(0.6773 -0.7357 0.7357 0.6773 339.0863 2094.7654)" class="st2" width="203.8" height="135.9"/>
<polygon class="st2" points="2668.3,439.9 2576.3,539.9 2426.4,401.8 2518.4,301.9 "/>
<rect x="2604.4" y="468" transform="matrix(0.6773 -0.7357 0.7357 0.6773 468.1508 2139.0701)" class="st3" width="135.9" height="135.9"/>
<path d="M961.2,335.9c97.6,0,140.1,40,159.7,73c22,35.1,28.6,79.9,29,122.3v212.3h-111.4V576c0-36.2-0.6-82.4-10.2-111
	c-9.4-28.3-30.8-49.3-81.5-49.3h-48.1v327.8H787.2V335.9H961.2z"/>
<path d="M1684.6,301.9V199.9l-111.1,0v74.3c0,15.2,12.4,27.6,27.6,27.6H1684.6z"/>
<path d="M1684.6,743.5V363.9c0-15.4-12.4-27.9-27.6-27.9h-83.4v407.5H1684.6z"/>
<path d="M1351.4,583.7l79-221.5c5.2-14.5,21.8-26.3,37-26.3h78.6l-155.1,407.5h-83.5l-164.5-407.5h92.5c15.2,0,31.8,11.8,37,26.3
	L1351.4,583.7z"/>
<path d="M516.7,503.7c-0.4-24.7,4.6-51.1,16.9-71.3c22.8-37.6,78.2-34.4,96.7,5.3c10.5,20.3,13.3,43.8,14.7,66H516.7z M708,382.1
	c-38.2-49.8-108.5-52.6-154-48.1c-44.8,4.4-91.1,25.1-118.1,68.5c-26.3,41.3-34,95.6-31.8,146.2c0.4,48.6,14,100.5,44.8,136.6
	c34.3,41.3,87.6,58.2,164.4,58.2h113l-7.5-59.1c-1.5-11.9-12.4-21.6-24.2-21.6l-65.7,0c-75.2,0-110.4-28.4-111.3-88.2h228.6
	C746.1,488.7,746.2,432,708,382.1"/>
<path d="M383.9,417.6c30.8-44.9,14.8-81.6-35.6-81.6h-91.6H83.3l7.4,58.2c1.5,11.9,12.4,21.6,24.2,21.6H254c0,8.2-4.7,14.8-8.2,20.3
	c-3.5,5.4-154.8,225.9-154.8,225.9c-30.8,44.9-14.8,81.6,35.6,81.6h91.6h184.1l-7.5-59.1c-1.5-11.9-12.4-21.6-24.2-21.6l-149.1,0.1
	c0-8.2,5.2-15.9,8.3-20.4C232.7,638,383.9,417.6,383.9,417.6"/>
<path d="M1943.1,662.8h-54.4c-27.2,0-45.9-5-53.8-23c-5.4-16.5-5.8-35.5-0.7-51.7c6.4-17.7,23.6-23.9,38.7-24.8
	c22.4-1.2,70.2-0.8,70.2-0.8V662.8z M1999.8,377.9c-36.3-34.6-75.7-42-114.9-42h-118.7l7.6,57.9c1.6,11.9,12.5,21.8,24.3,21.8
	l84.7,0.1c21.6,0,40.5,9.9,50.3,27.4c8.4,16.3,10.8,35.9,9.8,54.6c-28.6-2-57.3-1.2-85.9-0.4c-35.6,2-74.8,7.8-102.4,36.7
	c-25.8,27.7-31.4,72.2-26.9,110.9c2.8,30.5,17.8,59.9,41.5,74.6c34.2,21.6,77.3,23.9,112.1,23.9h164.1V499.2
	C2045.6,455.3,2032.6,408.9,1999.8,377.9"/>
</svg>
