<svg width="200" height="200" viewBox="0 0 200 200" fill="none" xmlns="http://www.w3.org/2000/svg">
<g clip-path="url(#clip0)">
<path d="M100 200C152.855 200 195.703 157.152 195.703 104.297C195.703 51.4415 152.855 8.59375 100 8.59375C47.1446 8.59375 4.29688 51.4415 4.29688 104.297C4.29688 157.152 47.1446 200 100 200Z" fill="#C3DDF4" fill-opacity="0.35"/>
<path d="M198.047 60.9379H145.601V90.0871C145.601 92.0254 144.024 93.6027 142.085 93.6027H135.148V108.615H142.789C143.864 108.615 144.743 109.494 144.743 110.568V116.406C144.743 117.48 145.519 117.948 146.468 117.445L161.409 109.529C162.359 109.026 164.014 108.615 165.088 108.615H198.047C199.121 108.615 200 107.736 200 106.662V62.891C200 61.8168 199.121 60.9379 198.047 60.9379Z" fill="#6EB419"/>
<path d="M150.535 67.0562H145.601V72.9156H150.535C152.154 72.9156 153.465 71.6039 153.465 69.9859C153.465 68.368 152.154 67.0562 150.535 67.0562Z" fill="white"/>
<path d="M163.687 72.9156H158.427C156.809 72.9156 155.497 71.6039 155.497 69.9859C155.497 68.368 156.809 67.0562 158.427 67.0562H163.687C165.305 67.0562 166.616 68.368 166.616 69.9859C166.616 71.6039 165.305 72.9156 163.687 72.9156Z" fill="white"/>
<path d="M187.36 72.9156H171.578C169.96 72.9156 168.648 71.6039 168.648 69.9859C168.648 68.368 169.96 67.0562 171.578 67.0562H187.36C188.978 67.0562 190.29 68.368 190.29 69.9859C190.29 71.6039 188.978 72.9156 187.36 72.9156Z" fill="white"/>
<path d="M187.36 82.3121H182.099C180.481 82.3121 179.17 81.0004 179.17 79.3824C179.17 77.7644 180.481 76.4527 182.099 76.4527H187.36C188.978 76.4527 190.29 77.7644 190.29 79.3824C190.29 81.0004 188.978 82.3121 187.36 82.3121Z" fill="white"/>
<path d="M174.208 82.3121H168.948C167.329 82.3121 166.018 81.0004 166.018 79.3824C166.018 77.7644 167.329 76.4527 168.948 76.4527H174.208C175.826 76.4527 177.138 77.7644 177.138 79.3824C177.138 81.0004 175.826 82.3121 174.208 82.3121Z" fill="white"/>
<path d="M161.057 76.4527H145.601V82.3121H161.057C162.675 82.3121 163.987 81.0004 163.987 79.3824C163.987 77.7644 162.675 76.4527 161.057 76.4527Z" fill="white"/>
<path d="M150.535 85.8488H145.601V90.0871C145.601 90.6707 145.456 91.2199 145.203 91.7047C145.227 91.7051 145.25 91.7082 145.275 91.7082H150.535C152.154 91.7082 153.465 90.3965 153.465 88.7785C153.465 87.1605 152.154 85.8488 150.535 85.8488Z" fill="white"/>
<path d="M163.687 91.7082H158.427C156.809 91.7082 155.497 90.3965 155.497 88.7785C155.497 87.1605 156.809 85.8488 158.427 85.8488H163.687C165.305 85.8488 166.616 87.1605 166.616 88.7785C166.616 90.3965 165.305 91.7082 163.687 91.7082Z" fill="white"/>
<path d="M187.36 91.7082H171.578C169.96 91.7082 168.648 90.3965 168.648 88.7785C168.648 87.1605 169.96 85.8488 171.578 85.8488H187.36C188.978 85.8488 190.29 87.1605 190.29 88.7785C190.29 90.3965 188.978 91.7082 187.36 91.7082Z" fill="white"/>
<path d="M150.535 101.105H145.275C143.657 101.105 142.345 99.793 142.345 98.175C142.345 96.557 143.657 95.2453 145.275 95.2453H150.535C152.154 95.2453 153.465 96.557 153.465 98.175C153.465 99.793 152.154 101.105 150.535 101.105Z" fill="white"/>
<path d="M173.551 101.105H158.427C156.809 101.105 155.497 99.793 155.497 98.175C155.497 96.557 156.809 95.2453 158.427 95.2453H173.551C175.169 95.2453 176.48 96.557 176.48 98.175C176.48 99.793 175.169 101.105 173.551 101.105Z" fill="white"/>
<path d="M187.36 101.105H181.818C180.2 101.105 178.888 99.793 178.888 98.175C178.888 96.557 180.2 95.2453 181.818 95.2453H187.36C188.978 95.2453 190.29 96.557 190.29 98.175C190.29 99.793 188.978 101.105 187.36 101.105Z" fill="white"/>
<path d="M168.75 0H31.25C30.1758 0 29.2969 0.878906 29.2969 1.95312V49.2188C29.2969 50.293 30.1758 51.1719 31.25 51.1719H64.8516V36.7188C64.8516 33.7031 67.3047 31.25 70.3203 31.25H129.68C132.695 31.25 135.148 33.7031 135.148 36.7188V51.1719H168.75C169.824 51.1719 170.703 50.293 170.703 49.2188V1.95312C170.703 0.878906 169.824 0 168.75 0Z" fill="#B72126"/>
<path d="M52.1835 12.8453H45.4246C43.8066 12.8453 42.4949 11.5336 42.4949 9.91562C42.4949 8.29765 43.8066 6.98593 45.4246 6.98593H52.1835C53.8015 6.98593 55.1132 8.29765 55.1132 9.91562C55.1132 11.5336 53.8015 12.8453 52.1835 12.8453Z" fill="white"/>
<path d="M69.0812 12.8453H62.3226C60.7047 12.8453 59.3929 11.5336 59.3929 9.91562C59.3929 8.29765 60.7047 6.98593 62.3226 6.98593H69.0812C70.6992 6.98593 72.0109 8.29765 72.0109 9.91562C72.0109 11.5336 70.6992 12.8453 69.0812 12.8453Z" fill="white"/>
<path d="M82.5992 22.0402H75.8402C74.2222 22.0402 72.9105 20.7285 72.9105 19.1105C72.9105 17.4926 74.2222 16.1808 75.8402 16.1808H82.5992C84.2172 16.1808 85.5289 17.4926 85.5289 19.1105C85.5289 20.7285 84.2172 22.0402 82.5992 22.0402Z" fill="white"/>
<path d="M65.7019 22.0402H45.4246C43.8066 22.0402 42.4949 20.7285 42.4949 19.1105C42.4949 17.4926 43.8066 16.1808 45.4246 16.1808H65.7019C67.3199 16.1808 68.6316 17.4926 68.6316 19.1105C68.6316 20.7285 67.3199 22.0402 65.7019 22.0402Z" fill="white"/>
<path d="M52.1835 31.2348H45.4246C43.8066 31.2348 42.4949 29.923 42.4949 28.3051C42.4949 26.6871 43.8066 25.3754 45.4246 25.3754H52.1835C53.8015 25.3754 55.1132 26.6871 55.1132 28.3051C55.1132 29.923 53.8015 31.2348 52.1835 31.2348Z" fill="white"/>
<path d="M69.0812 31.2348H62.3226C60.7047 31.2348 59.3929 29.923 59.3929 28.3051C59.3929 26.6871 60.7047 25.3754 62.3226 25.3754H69.0812C70.6992 25.3754 72.0109 26.6871 72.0109 28.3051C72.0109 29.923 70.6992 31.2348 69.0812 31.2348Z" fill="white"/>
<path d="M52.1835 40.4297H45.4246C43.8066 40.4297 42.4949 39.118 42.4949 37.5C42.4949 35.882 43.8066 34.5703 45.4246 34.5703H52.1835C53.8015 34.5703 55.1132 35.882 55.1132 37.5C55.1132 39.118 53.8015 40.4297 52.1835 40.4297Z" fill="white"/>
<path d="M64.8515 36.7188C64.8515 35.9562 65.0094 35.2305 65.2926 34.5703H62.3226C60.7047 34.5703 59.3929 35.882 59.3929 37.5C59.3929 39.118 60.7047 40.4297 62.3226 40.4297H64.8515V36.7188Z" fill="white"/>
<path d="M107.262 6.98593H79.2198C77.6019 6.98593 76.2902 8.29765 76.2902 9.91562C76.2902 11.5336 77.6019 12.8453 79.2198 12.8453H107.262C108.88 12.8453 110.191 11.5336 110.191 9.91562C110.191 8.29765 108.88 6.98593 107.262 6.98593Z" fill="white"/>
<path d="M124.159 12.8453H117.401C115.782 12.8453 114.471 11.5336 114.471 9.91562C114.471 8.29765 115.782 6.98593 117.401 6.98593H124.159C125.778 6.98593 127.089 8.29765 127.089 9.91562C127.089 11.5336 125.777 12.8453 124.159 12.8453Z" fill="white"/>
<path d="M154.575 12.8453H134.298C132.68 12.8453 131.368 11.5336 131.368 9.91562C131.368 8.29765 132.68 6.98593 134.298 6.98593H154.575C156.194 6.98593 157.505 8.29765 157.505 9.91562C157.505 11.5336 156.193 12.8453 154.575 12.8453Z" fill="white"/>
<path d="M154.575 22.0402H147.816C146.198 22.0402 144.887 20.7285 144.887 19.1105C144.887 17.4926 146.198 16.1808 147.816 16.1808H154.575C156.194 16.1808 157.505 17.4926 157.505 19.1105C157.505 20.7285 156.193 22.0402 154.575 22.0402Z" fill="white"/>
<path d="M137.677 22.0402H130.918C129.3 22.0402 127.989 20.7285 127.989 19.1105C127.989 17.4926 129.3 16.1808 130.918 16.1808H137.677C139.296 16.1808 140.607 17.4926 140.607 19.1105C140.607 20.7285 139.296 22.0402 137.677 22.0402Z" fill="white"/>
<path d="M120.78 16.1808H92.7382C91.1202 16.1808 89.8085 17.4926 89.8085 19.1105C89.8085 20.7285 91.1202 22.0402 92.7382 22.0402H120.78C122.398 22.0402 123.71 20.7285 123.71 19.1105C123.71 17.4926 122.398 16.1808 120.78 16.1808Z" fill="white"/>
<path d="M79.2198 31.2348H107.262C108.88 31.2348 110.191 29.923 110.191 28.3051C110.191 26.6871 108.88 25.3754 107.262 25.3754H79.2198C77.6019 25.3754 76.2902 26.6871 76.2902 28.3051C76.2902 29.923 77.6019 31.2348 79.2198 31.2348Z" fill="white"/>
<path d="M124.159 31.2348H117.401C115.782 31.2348 114.471 29.923 114.471 28.3051C114.471 26.6871 115.782 25.3754 117.401 25.3754H124.159C125.778 25.3754 127.089 26.6871 127.089 28.3051C127.089 29.923 125.777 31.2348 124.159 31.2348Z" fill="white"/>
<path d="M154.575 31.2348H134.298C132.68 31.2348 131.368 29.923 131.368 28.3051C131.368 26.6871 132.68 25.3754 134.298 25.3754H154.575C156.194 25.3754 157.505 26.6871 157.505 28.3051C157.505 29.923 156.193 31.2348 154.575 31.2348Z" fill="white"/>
<path d="M136.833 34.5703H134.708C134.991 35.2305 135.149 35.9562 135.149 36.7188V40.4297H136.833C138.451 40.4297 139.762 39.118 139.762 37.5C139.762 35.882 138.451 34.5703 136.833 34.5703Z" fill="white"/>
<path d="M154.575 40.4297H147.455C145.837 40.4297 144.525 39.118 144.525 37.5C144.525 35.882 145.837 34.5703 147.455 34.5703H154.575C156.194 34.5703 157.505 35.882 157.505 37.5C157.505 39.118 156.193 40.4297 154.575 40.4297Z" fill="white"/>
<path d="M152.52 158.804H150.2V185.785C153.385 183.818 156.448 181.673 159.371 179.358V177.344V156.9C157.371 158.108 155.027 158.804 152.52 158.804Z" fill="#1A2B63"/>
<path d="M40.6289 156.901V179.359C43.5516 181.674 46.6145 183.819 49.7996 185.785V158.805H47.4801C44.973 158.805 42.6289 158.108 40.6289 156.901Z" fill="#1A2B63"/>
<path d="M49.7996 130.235H47.48C40.1519 130.235 34.2117 136.175 34.2117 143.503V146.083C34.2117 153.411 40.1523 159.351 47.48 159.351H49.7996V130.235Z" fill="#445EA0"/>
<path d="M152.52 130.235H150.2V159.352H152.52C159.848 159.352 165.788 153.411 165.788 146.084V143.503C165.788 136.175 159.848 130.235 152.52 130.235Z" fill="#2E4C89"/>
<path d="M116.461 114.508H83.5391V126.16H116.461V114.508Z" fill="#2E4C89"/>
<path d="M91.6883 114.508H83.5391V126.16H91.6883V114.508Z" fill="#293D7C"/>
<path d="M142.085 54.2734H135.148V93.9934H142.085C144.234 93.9934 145.991 92.2355 145.991 90.0871V58.1797C145.991 56.0312 144.234 54.2734 142.085 54.2734Z" fill="#2E4C89"/>
<path d="M64.8515 54.2734H57.9144C55.766 54.2734 54.0082 56.0312 54.0082 58.1797V90.0871C54.0082 92.2355 55.766 93.9934 57.9144 93.9934H64.8515V54.2734Z" fill="#445EA0"/>
<path d="M135.539 109.039C135.539 112.262 132.902 114.899 129.68 114.899H70.3203C67.0977 114.899 64.4609 112.262 64.4609 109.039V36.7188C64.4609 33.4961 67.0977 30.8594 70.3203 30.8594H129.68C132.902 30.8594 135.539 33.4961 135.539 36.7188V109.039Z" fill="#445EA0"/>
<path d="M72.6562 109.039V36.7188C72.6562 33.4961 75.293 30.8594 78.5156 30.8594H70.3203C67.0977 30.8594 64.4609 33.4961 64.4609 36.7188V109.039C64.4609 112.262 67.0977 114.899 70.3203 114.899H78.5156C75.293 114.899 72.6562 112.262 72.6562 109.039Z" fill="#2E4C89"/>
<path d="M129.711 77.4723C129.711 80.6949 127.074 83.3316 123.852 83.3316H76.1484C72.9258 83.3316 70.2891 80.6949 70.2891 77.4723V50.9344C70.2891 47.7117 72.9258 45.075 76.1484 45.075H123.852C127.074 45.075 129.711 47.7117 129.711 50.9344V77.4723Z" fill="#2E4C89"/>
<path d="M129.711 77.0602C129.711 80.5098 126.889 83.3316 123.439 83.3316H76.5609C73.1113 83.3316 70.2894 80.5094 70.2894 77.0602V51.3465C70.2894 47.8969 73.1117 45.075 76.5609 45.075H123.439C126.889 45.075 129.711 47.8973 129.711 51.3465V77.0602Z" fill="#293D7C"/>
<path d="M83.2773 45.075V45.8066C83.2773 49.2562 86.0996 52.0781 89.5488 52.0781H110.451C113.9 52.0781 116.722 49.2559 116.722 45.8066V45.075C116.722 45.075 83.2773 45.075 83.2773 45.075Z" fill="#1A2B63"/>
<path d="M146.41 125.77H53.5902C51.2906 125.77 49.4089 127.651 49.4089 129.951V185.543C64.0875 194.702 81.4238 200 100 200C118.577 200 135.912 194.702 150.591 185.542V129.95C150.591 127.651 148.709 125.77 146.41 125.77Z" fill="#445EA0"/>
<path d="M57.4218 129.95C57.4218 127.651 59.3035 125.769 61.6031 125.769H53.5902C51.2906 125.769 49.4089 127.651 49.4089 129.95V185.542C51.9992 187.159 54.6738 188.652 57.4218 190.02V129.95Z" fill="#2E4C89"/>
<path d="M90.8809 71.1352C90.8809 72.2094 90.002 73.0883 88.9278 73.0883H83.4918C82.4176 73.0883 81.5387 72.2094 81.5387 71.1352V59.4719C81.5387 58.3977 82.4176 57.5188 83.4918 57.5188H88.9278C90.002 57.5188 90.8809 58.3977 90.8809 59.4719V71.1352Z" fill="#159E97"/>
<path d="M118.461 71.1352C118.461 72.2094 117.582 73.0883 116.508 73.0883H111.073C109.998 73.0883 109.12 72.2094 109.12 71.1352V59.4719C109.12 58.3977 109.998 57.5188 111.073 57.5188H116.508C117.582 57.5188 118.461 58.3977 118.461 59.4719V71.1352Z" fill="#159E97"/>
<path d="M119.722 99.2477C119.722 100.322 118.843 101.201 117.768 101.201H82.2317C81.1575 101.201 80.2786 100.322 80.2786 99.2477V94.2742C80.2786 93.2 81.1575 92.3211 82.2317 92.3211H117.768C118.843 92.3211 119.722 93.2 119.722 94.2742V99.2477Z" fill="#02AF8E"/>
<path d="M88.2911 99.2477V94.2742C88.2911 93.2 89.17 92.3211 90.2442 92.3211H82.2317C81.1575 92.3211 80.2786 93.2 80.2786 94.2742V99.2477C80.2786 100.322 81.1575 101.201 82.2317 101.201H90.2442C89.17 101.201 88.2911 100.322 88.2911 99.2477Z" fill="#0F9390"/>
<path d="M129.268 142.074H70.7324C67.2832 142.074 64.4609 144.896 64.4609 148.346V193.179C75.4492 197.577 87.441 200 100 200C112.559 200 124.551 197.577 135.539 193.179V148.346C135.539 144.896 132.717 142.074 129.268 142.074Z" fill="#9CE2D8"/>
<path d="M72.6562 148.346C72.6562 144.896 75.4785 142.074 78.9277 142.074H70.7324C67.2832 142.074 64.4609 144.896 64.4609 148.346V193.179C67.1352 194.249 69.8695 195.2 72.6562 196.03V148.346Z" fill="#74D1C1"/>
<path d="M75.6458 162.079C75.6458 155.199 81.2426 149.602 88.1223 149.602H113.341C120.221 149.602 125.818 155.199 125.818 162.079C125.818 168.959 120.221 174.555 113.341 174.555H88.1223C81.2426 174.555 75.6458 168.959 75.6458 162.079Z" fill="#6DC3ED"/>
<path d="M88.1222 170.375C83.5406 170.375 79.8265 166.66 79.8265 162.079C79.8265 157.497 83.5406 153.783 88.1222 153.783H113.341C117.923 153.783 121.637 157.497 121.637 162.079C121.637 166.66 117.923 170.375 113.341 170.375H88.1222Z" fill="white"/>
<path d="M104.714 153.783H88.1222C83.5406 153.783 79.8265 157.497 79.8265 162.079C79.8265 166.66 83.5406 170.375 88.1222 170.375H104.714V153.783Z" fill="#02AF8E"/>
<path d="M88.0035 162.079C88.0035 157.497 91.7176 153.783 96.2992 153.783H88.1222C83.5406 153.783 79.8265 157.497 79.8265 162.079C79.8265 166.66 83.5406 170.375 88.1222 170.375H96.2992C91.7176 170.375 88.0035 166.66 88.0035 162.079Z" fill="#0F9390"/>
<path d="M87.9805 186.812C89.7128 186.812 91.1172 185.408 91.1172 183.676C91.1172 181.943 89.7128 180.539 87.9805 180.539C86.2481 180.539 84.8438 181.943 84.8438 183.676C84.8438 185.408 86.2481 186.812 87.9805 186.812Z" fill="#445EA0"/>
<path d="M100.73 186.812C102.463 186.812 103.867 185.408 103.867 183.676C103.867 181.943 102.463 180.539 100.73 180.539C98.9981 180.539 97.5938 181.943 97.5938 183.676C97.5938 185.408 98.9981 186.812 100.73 186.812Z" fill="#445EA0"/>
<path d="M113.484 186.812C115.217 186.812 116.621 185.408 116.621 183.676C116.621 181.943 115.217 180.539 113.484 180.539C111.752 180.539 110.348 181.943 110.348 183.676C110.348 185.408 111.752 186.812 113.484 186.812Z" fill="#445EA0"/>
<path d="M54.1832 100.721C55.1051 100.17 55.1051 99.2676 54.1832 98.716L48.8105 95.5023C47.8887 94.9508 47.1344 93.6211 47.1344 92.5469V79.0152C47.1344 77.941 46.2555 77.0621 45.1813 77.0621H1.95312C0.878906 77.0621 0 77.941 0 79.0152V120.421C0 121.496 0.878906 122.375 1.95312 122.375H45.1813C46.2555 122.375 47.1344 121.496 47.1344 120.421V106.89C47.1344 105.816 47.8887 104.486 48.8105 103.934L54.1832 100.721Z" fill="#7D1E78"/>
<path d="M22.0703 106.445C21.0559 106.445 20.1133 105.92 19.5793 105.058L15.8203 98.9856L13.4285 102.849C12.8945 103.712 11.952 104.237 10.9375 104.237H6.25C4.63203 104.237 3.32031 102.925 3.32031 101.307C3.32031 99.6891 4.63203 98.3773 6.25 98.3773H9.30547L13.3293 91.8773C13.8633 91.0148 14.8059 90.4899 15.8203 90.4899C16.8348 90.4899 17.7773 91.0148 18.3113 91.8773L22.0703 97.9496L27.1965 89.6688C27.7465 88.7805 28.7344 88.2567 29.7723 88.2824C30.8168 88.3129 31.766 88.8969 32.2637 89.8156L36.9016 98.3777H40.2344C41.8523 98.3777 43.1641 99.6895 43.1641 101.307C43.1641 102.925 41.8523 104.237 40.2344 104.237H35.1562C34.0812 104.237 33.0922 103.648 32.5801 102.703L29.5184 97.0504L24.5613 105.058C24.0273 105.92 23.0848 106.445 22.0703 106.445Z" fill="white"/>
</g>
<defs>
<clipPath id="clip0">
<rect width="200" height="200" fill="white"/>
</clipPath>
</defs>
</svg>
